<svg id="visual" viewBox="0 0 900 600" width="900" height="600" xmlns="http://www.w3.org/2000/svg" xmlns:xlink="http://www.w3.org/1999/xlink" version="1.1"><rect x="0" y="0" width="900" height="600" fill="#ffffff"></rect><path d="M0 379L21.5 384.3C43 389.7 86 400.3 128.8 404.2C171.7 408 214.3 405 257.2 403.8C300 402.7 343 403.3 385.8 407.7C428.7 412 471.3 420 514.2 422.5C557 425 600 422 642.8 409.8C685.7 397.7 728.3 376.3 771.2 374C814 371.7 857 388.3 878.5 396.7L900 405L900 601L878.5 601C857 601 814 601 771.2 601C728.3 601 685.7 601 642.8 601C600 601 557 601 514.2 601C471.3 601 428.7 601 385.8 601C343 601 300 601 257.2 601C214.3 601 171.7 601 128.8 601C86 601 43 601 21.5 601L0 601Z" fill="#e9d186"></path><path d="M0 433L21.5 431.2C43 429.3 86 425.7 128.8 425.7C171.7 425.7 214.3 429.3 257.2 437.3C300 445.3 343 457.7 385.8 462.3C428.7 467 471.3 464 514.2 456C557 448 600 435 642.8 431C685.7 427 728.3 432 771.2 439.7C814 447.3 857 457.7 878.5 462.8L900 468L900 601L878.5 601C857 601 814 601 771.2 601C728.3 601 685.7 601 642.8 601C600 601 557 601 514.2 601C471.3 601 428.7 601 385.8 601C343 601 300 601 257.2 601C214.3 601 171.7 601 128.8 601C86 601 43 601 21.5 601L0 601Z" fill="#ecbd65"></path><path d="M0 506L21.5 504.5C43 503 86 500 128.8 494.3C171.7 488.7 214.3 480.3 257.2 477.3C300 474.3 343 476.7 385.8 478.7C428.7 480.7 471.3 482.3 514.2 481C557 479.7 600 475.3 642.8 474.3C685.7 473.3 728.3 475.7 771.2 478.5C814 481.3 857 484.7 878.5 486.3L900 488L900 601L878.5 601C857 601 814 601 771.2 601C728.3 601 685.7 601 642.8 601C600 601 557 601 514.2 601C471.3 601 428.7 601 385.8 601C343 601 300 601 257.2 601C214.3 601 171.7 601 128.8 601C86 601 43 601 21.5 601L0 601Z" fill="#f1a747"></path><path d="M0 509L21.5 504.7C43 500.3 86 491.7 128.8 489.5C171.7 487.3 214.3 491.7 257.2 500.7C300 509.7 343 523.3 385.8 530.7C428.7 538 471.3 539 514.2 532.8C557 526.7 600 513.3 642.8 509.8C685.7 506.3 728.3 512.7 771.2 510.7C814 508.7 857 498.3 878.5 493.2L900 488L900 601L878.5 601C857 601 814 601 771.2 601C728.3 601 685.7 601 642.8 601C600 601 557 601 514.2 601C471.3 601 428.7 601 385.8 601C343 601 300 601 257.2 601C214.3 601 171.7 601 128.8 601C86 601 43 601 21.5 601L0 601Z" fill="#f88e2e"></path><path d="M0 570L21.5 569.7C43 569.3 86 568.7 128.8 564.7C171.7 560.7 214.3 553.3 257.2 549.2C300 545 343 544 385.8 544.2C428.7 544.3 471.3 545.7 514.2 547.7C557 549.7 600 552.3 642.8 549.7C685.7 547 728.3 539 771.2 536.8C814 534.7 857 538.3 878.5 540.2L900 542L900 601L878.5 601C857 601 814 601 771.2 601C728.3 601 685.7 601 642.8 601C600 601 557 601 514.2 601C471.3 601 428.7 601 385.8 601C343 601 300 601 257.2 601C214.3 601 171.7 601 128.8 601C86 601 43 601 21.5 601L0 601Z" fill="#ff701e"></path></svg>